HIERARCHY
ROOT mixamorig_Hips
{
	OFFSET 0.000000 0.890477 -0.000138
	CHANNELS 6 Xposition Yposition Zposition Xrotation Yrotation Zrotation
	JOINT mixamorig_RightUpLeg
	{
		OFFSET -8.224193 -6.337456 -1.245509
		CHANNELS 3 Xrotation Yrotation Zrotation
		JOINT mixamorig_RightLeg
		{
			OFFSET -0.853740 -41.205795 -1.113445
			CHANNELS 3 Xrotation Yrotation Zrotation
			JOINT mixamorig_RightFoot
			{
				OFFSET 0.305346 -37.074059 5.547482
				CHANNELS 3 Xrotation Yrotation Zrotation
				JOINT mixamorig_RightToeBase
				{
					OFFSET 0.275999 -7.386046 -10.162342
					CHANNELS 3 Xrotation Yrotation Zrotation
					End Site
					{
						OFFSET 1.527623 -0.641087 -9.418583
					}
				}
			}
		}
	}
	JOINT mixamorig_LeftUpLeg
	{
		OFFSET 8.238425 -6.144493 -1.530489
		CHANNELS 3 Xrotation Yrotation Zrotation
		JOINT mixamorig_LeftLeg
		{
			OFFSET 0.999181 -40.793915 0.038145
			CHANNELS 3 Xrotation Yrotation Zrotation
			JOINT mixamorig_LeftFoot
			{
				OFFSET -1.148513 -38.134243 4.265069
				CHANNELS 3 Xrotation Yrotation Zrotation
				JOINT mixamorig_LeftToeBase
				{
					OFFSET -0.465251 -6.961702 -10.249644
					CHANNELS 3 Xrotation Yrotation Zrotation
					End Site
					{
						OFFSET -0.959344 -0.686551 -9.361076
					}
				}
			}
		}
	}
	JOINT mixamorig_Spine
	{
		OFFSET -0.012521 9.659492 0.152576
		CHANNELS 3 Xrotation Yrotation Zrotation
		JOINT mixamorig_Spine1
		{
			OFFSET 0.013316 9.940590 -0.620916
			CHANNELS 3 Xrotation Yrotation Zrotation
			JOINT mixamorig_Spine2
			{
				OFFSET -0.024142 10.082199 -0.544315
				CHANNELS 3 Xrotation Yrotation Zrotation
				JOINT mixamorig_Neck
				{
					OFFSET -0.280692 18.101685 -1.792333
					CHANNELS 3 Xrotation Yrotation Zrotation
					JOINT mixamorig_Head
					{
						OFFSET -0.018573 9.067642 0.460133
						CHANNELS 3 Xrotation Yrotation Zrotation
						End Site
						{
							OFFSET 0.158257 16.422226 3.010605
						}
					}
				}
				JOINT mixamorig_RightShoulder
				{
					OFFSET -4.418977 12.360168 -1.870196
					CHANNELS 3 Xrotation Yrotation Zrotation
					JOINT mixamorig_RightArm
					{
						OFFSET -0.840364 -0.706100 9.418602
						CHANNELS 3 Xrotation Yrotation Zrotation
						JOINT mixamorig_RightForeArm
						{
							OFFSET -2.498498 0.041534 25.943676
							CHANNELS 3 Xrotation Yrotation Zrotation
							JOINT mixamorig_RightHand
							{
								OFFSET -2.575367 0.795197 26.809452
								CHANNELS 3 Xrotation Yrotation Zrotation
								JOINT mixamorig_RightHandIndex1
								{
									OFFSET 3.136251 -0.538528 8.955254
									CHANNELS 3 Xrotation Yrotation Zrotation
									JOINT mixamorig_RightHandIndex2
									{
										OFFSET 0.051750 0.018234 3.880755
										CHANNELS 3 Xrotation Yrotation Zrotation
										JOINT mixamorig_RightHandIndex3
										{
											OFFSET 0.159386 -0.111511 2.528431
											CHANNELS 3 Xrotation Yrotation Zrotation
											End Site
											{
												OFFSET -0.186133 -0.129547 2.317834
											}
										}
									}
								}
								JOINT mixamorig_RightHandThumb1
								{
									OFFSET 3.146857 -1.651413 2.139514
									CHANNELS 3 Xrotation Yrotation Zrotation
									JOINT mixamorig_RightHandThumb2
									{
										OFFSET 0.227379 -1.950211 3.563250
										CHANNELS 3 Xrotation Yrotation Zrotation
										JOINT mixamorig_RightHandThumb3
										{
											OFFSET -0.284211 -0.956070 2.684949
											CHANNELS 3 Xrotation Yrotation Zrotation
											End Site
											{
												OFFSET -0.050027 -1.039322 2.580839
											}
										}
									}
								}
								JOINT mixamorig_RightHandMiddle1
								{
									OFFSET 0.842868 0.059799 9.204017
									CHANNELS 3 Xrotation Yrotation Zrotation
									JOINT mixamorig_RightHandMiddle2
									{
										OFFSET 0.007599 0.118408 3.598334
										CHANNELS 3 Xrotation Yrotation Zrotation
										JOINT mixamorig_RightHandMiddle3
										{
											OFFSET -0.157197 -0.125458 2.928855
											CHANNELS 3 Xrotation Yrotation Zrotation
											End Site
											{
												OFFSET 0.172696 -0.014359 2.626183
											}
										}
									}
								}
								JOINT mixamorig_RightHandRing1
								{
									OFFSET -1.001290 0.004471 8.712891
									CHANNELS 3 Xrotation Yrotation Zrotation
									JOINT mixamorig_RightHandRing2
									{
										OFFSET -0.114342 0.268219 2.619466
										CHANNELS 3 Xrotation Yrotation Zrotation
										JOINT mixamorig_RightHandRing3
										{
											OFFSET 0.155752 0.013962 2.934787
											CHANNELS 3 Xrotation Yrotation Zrotation
											End Site
											{
												OFFSET -0.022682 -0.334305 2.395091
											}
										}
									}
								}
								JOINT mixamorig_RightHandPinky1
								{
									OFFSET -2.870745 -0.520309 8.239086
									CHANNELS 3 Xrotation Yrotation Zrotation
									JOINT mixamorig_RightHandPinky2
									{
										OFFSET -0.064124 0.097565 3.353874
										CHANNELS 3 Xrotation Yrotation Zrotation
										JOINT mixamorig_RightHandPinky3
										{
											OFFSET 0.054191 -0.056305 1.657426
											CHANNELS 3 Xrotation Yrotation Zrotation
											End Site
											{
												OFFSET 0.034473 0.045517 1.902615
											}
										}
									}
								}
							}
						}
					}
				}
				JOINT mixamorig_LeftShoulder
				{
					OFFSET 4.067368 12.365417 -1.818083
					CHANNELS 3 Xrotation Yrotation Zrotation
					JOINT mixamorig_LeftArm
					{
						OFFSET 0.880652 -0.717896 9.769979
						CHANNELS 3 Xrotation Yrotation Zrotation
						JOINT mixamorig_LeftForeArm
						{
							OFFSET 2.551281 -0.093887 25.986422
							CHANNELS 3 Xrotation Yrotation Zrotation
							JOINT mixamorig_LeftHand
							{
								OFFSET 2.550158 0.834869 25.953165
								CHANNELS 3 Xrotation Yrotation Zrotation
								JOINT mixamorig_LeftHandIndex1
								{
									OFFSET -3.091449 -0.508453 8.774550
									CHANNELS 3 Xrotation Yrotation Zrotation
									JOINT mixamorig_LeftHandIndex2
									{
										OFFSET 0.036697 0.078873 3.768008
										CHANNELS 3 Xrotation Yrotation Zrotation
										JOINT mixamorig_LeftHandIndex3
										{
											OFFSET -0.146443 -0.119202 2.548758
											CHANNELS 3 Xrotation Yrotation Zrotation
											End Site
											{
												OFFSET 0.171421 0.029297 2.617404
											}
										}
									}
								}
								JOINT mixamorig_LeftHandThumb1
								{
									OFFSET -3.148789 -1.646713 2.206965
									CHANNELS 3 Xrotation Yrotation Zrotation
									JOINT mixamorig_LeftHandThumb2
									{
										OFFSET 0.080562 -1.997971 3.556270
										CHANNELS 3 Xrotation Yrotation Zrotation
										JOINT mixamorig_LeftHandThumb3
										{
											OFFSET 0.511188 -1.178329 2.869402
											CHANNELS 3 Xrotation Yrotation Zrotation
											End Site
											{
												OFFSET -0.395684 -1.027771 2.132432
											}
										}
									}
								}
								JOINT mixamorig_LeftHandMiddle1
								{
									OFFSET -0.779669 -0.015396 9.112029
									CHANNELS 3 Xrotation Yrotation Zrotation
									JOINT mixamorig_LeftHandMiddle2
									{
										OFFSET 0.052194 -0.112549 3.389368
										CHANNELS 3 Xrotation Yrotation Zrotation
										JOINT mixamorig_LeftHandMiddle3
										{
											OFFSET 0.178288 -0.162537 3.259809
											CHANNELS 3 Xrotation Yrotation Zrotation
											End Site
											{
												OFFSET -0.168278 0.311600 2.538658
											}
										}
									}
								}
								JOINT mixamorig_LeftHandRing1
								{
									OFFSET 1.087882 0.018982 8.604859
									CHANNELS 3 Xrotation Yrotation Zrotation
									JOINT mixamorig_LeftHandRing2
									{
										OFFSET 0.149309 0.141083 2.758817
										CHANNELS 3 Xrotation Yrotation Zrotation
										JOINT mixamorig_LeftHandRing3
										{
											OFFSET -0.068528 -0.036240 2.975783
											CHANNELS 3 Xrotation Yrotation Zrotation
											End Site
											{
												OFFSET -0.030775 -0.086090 2.514544
											}
										}
									}
								}
								JOINT mixamorig_LeftHandPinky1
								{
									OFFSET 2.960986 -0.570038 8.064888
									CHANNELS 3 Xrotation Yrotation Zrotation
									JOINT mixamorig_LeftHandPinky2
									{
										OFFSET 0.094121 0.094238 2.893586
										CHANNELS 3 Xrotation Yrotation Zrotation
										JOINT mixamorig_LeftHandPinky3
										{
											OFFSET -0.031188 0.050095 1.974020
											CHANNELS 3 Xrotation Yrotation Zrotation
											End Site
											{
												OFFSET -0.027014 0.187729 1.913422
											}
										}
									}
								}
							}
						}
					}
				}
			}
		}
	}
}
MOTION
Frames: 4
Frame Time: 0.03333333333333333
4.234052 10.080380 -2.707710 0.000000 0.890477 -0.000138 161.649462 74.838514 169.076341 -62.436871 49.253622 58.564096 -10.350080 16.003298 10.865678 -4.812507 2.648047 -4.605803 -26.474463 1.954340 3.131859 -120.256896 -31.358549 179.646785 -3.731732 -33.779864 -11.598276 0.588591 0.614361 3.331962 9.739514 -5.019533 5.594798 5.823567 -4.206120 3.577051 7.243093 -3.924767 3.438589 25.389806 0.509372 6.785001 35.124226 -4.991290 10.158052 127.391334 -72.077335 125.540300 41.305801 26.482856 29.740198 163.943960 68.148419 -172.520196 -23.768428 -0.947559 -0.208098 9.202118 3.958468 -2.822424 19.014906 -3.168238 0.003798 15.203534 -0.848744 -1.383488 -1.978365 15.634873 -2.288384 -5.854787 -7.823997 -0.894849 -7.953433 -14.480211 1.678930 23.995676 2.354665 -0.580401 19.382891 -2.749726 -2.320038 10.393824 1.069667 1.691068 14.680605 -0.112012 -0.564307 23.091408 -3.048746 -0.675903 29.317121 0.313857 0.006236 11.980636 -10.764301 1.031339 16.939357 -4.290123 -2.183432 12.305889 0.446147 -0.658811 30.600228 83.076033 -25.710652 31.292134 -6.237039 -29.677271 169.175208 -55.227730 -179.560455 -33.024758 -16.390102 -37.220577 21.392947 -7.427928 3.598037 28.092474 3.604942 1.467049 3.740497 0.115018 0.586857 -9.827822 -29.776601 -1.693485 1.129623 -1.739930 -0.095572 2.087138 -8.027290 0.830174 16.492689 -2.092027 1.890467 37.977403 5.773794 -1.476607 15.293517 2.981878 0.097182 15.030146 4.741519 5.258186 25.565948 4.629515 0.737311 38.338213 3.062157 -0.030808 13.795095 14.353672 2.001122 16.586648 1.482379 2.510795 24.141309 3.683212 -0.409893 
4.233575 10.126165 -2.691498 0.000000 0.890477 -0.000138 161.791084 74.888075 168.928867 -62.393797 49.325571 58.549561 -10.417681 15.893359 10.863702 -4.807921 2.637478 -4.572836 -26.432338 1.960995 3.101826 -120.345572 -31.444744 179.680116 -3.859258 -33.718956 -11.670295 0.597200 0.611694 3.325246 9.739437 -4.960068 5.609427 5.851285 -4.188675 3.593743 7.257854 -3.894072 3.449378 25.248610 0.517467 6.744787 34.896557 -5.045481 10.126413 127.269392 -72.115429 125.424265 41.311555 26.483536 29.742389 163.943960 68.148419 -172.520196 -23.805095 -0.913878 -0.224447 9.120017 3.965066 -2.835705 18.980535 -3.164846 -0.009126 15.152186 -0.848190 -1.386211 -2.056653 15.581177 -2.260682 -5.847143 -7.720976 -0.884800 -7.935306 -14.424112 1.677129 23.849748 2.339598 -0.569383 19.346730 -2.743333 -2.317272 10.364999 1.054247 1.679267 14.564741 -0.113199 -0.551187 23.000997 -3.032225 -0.677229 29.306651 0.284393 -0.007107 11.724852 -10.750590 1.030578 16.800274 -4.265513 -2.178453 12.284453 0.437068 -0.662822 30.832419 83.049898 -25.955442 31.289062 -6.274031 -29.651574 169.213399 -55.173751 -179.583354 -33.099627 -16.354594 -37.212651 21.360579 -7.437227 3.601922 27.995238 3.594247 1.463750 3.708414 0.116860 0.591942 -9.899379 -29.692838 -1.820857 1.074359 -1.727913 -0.081922 2.107368 -8.049439 0.832981 16.453364 -2.076626 1.889502 37.867980 5.758260 -1.470746 15.264663 2.968746 0.103689 14.990714 4.706577 5.234233 25.395455 4.608785 0.740260 38.271462 3.047205 -0.034734 13.679405 14.346780 1.995166 16.410161 1.470394 2.491489 24.070651 3.672751 -0.401120 
4.287830 11.115831 -2.351727 0.000000 0.890477 -0.000138 165.700674 76.114778 164.896532 -61.293467 51.143675 58.174613 -12.057579 13.179896 10.779211 -4.705482 2.378934 -3.793225 -25.370286 2.120474 2.399566 -122.677070 -33.592005 -179.561116 -6.868189 -32.227211 -13.318549 0.754544 0.543752 3.161941 9.648272 -3.513298 5.961137 6.514046 -3.738081 4.011246 7.604996 -3.133683 3.723095 21.810364 0.716032 5.764962 29.412194 -6.343953 9.288779 124.232510 -72.982452 122.555105 41.455376 26.500591 29.797133 163.943960 68.148419 -172.520196 -24.730513 -0.152213 -0.514130 7.144413 4.111550 -3.178176 18.298423 -3.088609 -0.332189 13.780642 -0.824262 -1.438374 -3.977612 14.258757 -1.688492 -5.666212 -5.226728 -0.622254 -7.440882 -12.964253 1.693462 20.224324 1.975246 -0.300778 18.645879 -2.601533 -2.242103 9.524682 0.691492 1.403114 11.659006 -0.172487 -0.234624 20.790357 -2.630362 -0.705012 29.003075 -0.421480 -0.321360 5.359693 -10.488622 1.028894 13.321959 -3.665702 -2.039467 11.685201 0.220792 -0.757190 35.934200 82.431826 -31.360481 31.329357 -7.161092 -28.930519 170.128764 -53.778770 179.881763 -35.016656 -15.356803 -36.997565 20.564853 -7.669373 3.706391 25.732434 3.351301 1.385065 2.900309 0.154480 0.710339 -11.626597 -27.584304 -4.876971 -0.292099 -1.493021 0.257384 2.646472 -8.629910 0.901931 15.476248 -1.723176 1.861276 35.278359 5.387360 -1.337897 14.503684 2.644929 0.261831 13.998168 3.845691 4.645961 21.233994 4.098596 0.795246 36.630330 2.685637 -0.125885 10.830063 14.202369 1.822668 12.067360 1.193955 2.014732 22.320445 3.409937 -0.186819 
5.073189 10.384815 -2.731590 0.000000 0.890477 -0.000138 170.430998 77.413311 160.287996 -60.300184 52.977185 58.041653 -13.151114 11.026857 10.687146 -4.772381 2.189357 -3.542330 -24.293993 2.291070 2.269219 -126.036474 -35.372680 -179.317733 -8.298685 -31.576144 -13.891053 0.279058 0.473954 3.051001 8.671040 -2.570251 6.159952 6.819798 -3.179704 4.414753 7.704776 -2.496812 4.035207 19.551253 0.555103 5.046496 26.655204 -7.376593 8.691580 123.195557 -73.165866 121.889941 41.599152 26.517730 29.851803 163.943960 68.148419 -172.520196 -25.702773 -0.376106 0.427358 6.146265 4.011709 -3.636135 19.512709 -3.133634 -0.640248 11.566490 -0.705465 -1.316322 -5.530892 13.379614 -2.143885 -5.543742 -3.737610 -0.209654 -6.567008 -10.979736 2.395284 17.098018 1.850519 -0.011165 20.142486 -2.654667 -2.120483 7.498112 0.571146 1.363518 8.856261 -0.442501 -0.066918 19.248842 -2.382478 -0.746909 28.273609 -0.760237 -0.393689 -0.263740 -11.074467 0.977221 10.070046 -3.228790 -1.927620 10.433648 0.122678 -0.773806 38.717069 82.616716 -34.298333 32.574043 -7.546617 -27.406382 170.572500 -52.004677 179.871231 -37.276805 -13.188087 -36.752641 19.970556 -7.875811 3.895291 25.409364 3.365752 1.407801 2.100671 0.112012 0.725163 -13.393469 -25.876387 -7.015042 -1.411141 -1.945598 0.517985 3.493596 -9.446623 0.920122 14.640061 -1.735538 1.763032 34.396502 5.259342 -1.259453 13.384695 2.399154 0.380193 13.057301 3.115752 4.278828 18.438559 3.739677 0.832864 35.414478 2.462903 -0.086004 8.639565 14.322992 1.464009 8.782750 0.983122 1.740369 20.854950 3.181589 -0.001246 
